ffmpeg started on 2025-05-12 at 16:42:52
Report written to "D:\Convert\FFMetrics\reports\ssim_report-6.txt"
Log level: 32
Command line:
ffmpeg -hide_banner -nostdin -i "G:\\\xc0\xed\xe8\xec\xe5\\\xce\xed\xe3\xee\xe8\xed\xe3\xe8\\!_35_\xcb\xe5\xf2\xee_2024\\DreamCast\\\xcc\xee\xff \xef\xee\xe4\xf0\xf3\xe3\xe0-\xee\xeb\xe5\xed\xe8\xf5\xe0, \xcd\xee\xea\xee\xf2\xe0\xed\\[DC] Shikanoko Nokonoko Koshitantan - 08_Telegram_HEVC.mkv" -i "G:\\\xc0\xed\xe8\xec\xe5\\\xce\xed\xe3\xee\xe8\xed\xe3\xe8\\!_35_\xcb\xe5\xf2\xee_2024\\DreamCast\\\xcc\xee\xff \xef\xee\xe4\xf0\xf3\xe3\xe0-\xee\xeb\xe5\xed\xe8\xf5\xe0, \xcd\xee\xea\xee\xf2\xe0\xed\\[DC] Shikanoko Nokonoko Koshitantan - 08_Telegram.mp4" -lavfi "[0:v]settb=AVTB,setpts=PTS-STARTPTS,format=pix_fmts=yuv420p10,fps=24000/1001,scale=1920:1080:flags=bicubic[main];[1:v]settb=AVTB,setpts=PTS-STARTPTS,format=pix_fmts=yuv420p,fps=24000/1001,scale=1920:1080:flags=bicubic[ref];[main][ref]ssim=eof_action=endall:stats_file='D\\:/Convert/FFMetrics/logs/ssim_logfile-6.txt'" -f null -
Input #0, matroska,webm, from 'G:\Аниме\Онгоинги\!_35_Лето_2024\DreamCast\Моя подруга-олениха, Нокотан\[DC] Shikanoko Nokonoko Koshitantan - 08_Telegram_HEVC.mkv':
  Metadata:
    COMPATIBLE_BRANDS: isomiso2avc1mp41
    MAJOR_BRAND     : isom
    MINOR_VERSION   : 512
    ENCODER         : Lavf61.7.100
  Duration: 00:23:41.70, start: -0.021000, bitrate: 1610 kb/s
  Stream #0:0: Video: hevc (Main 10), yuv420p10le(tv, bt709, progressive), 1920x1080 [SAR 1:1 DAR 16:9], 23.98 fps, 23.98 tbr, 1k tbn (default)
      Metadata:
        HANDLER_NAME    : VideoHandler
        VENDOR_ID       : [0][0][0][0]
        ENCODER         : Lavc61.19.100 libx265
        BPS             : 1413089
        DURATION        : 00:23:41.586708333
        NUMBER_OF_FRAMES: 34084
        NUMBER_OF_BYTES : 251103587
        _STATISTICS_WRITING_APP: mkvpropedit v66.0.0 ('Josie') 64-bit
        _STATISTICS_WRITING_DATE_UTC: 2025-05-08 11:18:09
        _STATISTICS_TAGS: BPS DURATION NUMBER_OF_FRAMES NUMBER_OF_BYTES
  Stream #0:1: Audio: aac (LC), 48000 Hz, stereo, fltp (default)
      Metadata:
        HANDLER_NAME    : SoundHandler
        VENDOR_ID       : [0][0][0][0]
        ENCODER         : Lavc61.19.100 aac
        BPS             : 193630
        DURATION        : 00:23:41.696000000
        NUMBER_OF_FRAMES: 66643
        NUMBER_OF_BYTES : 34410485
        _STATISTICS_WRITING_APP: mkvpropedit v66.0.0 ('Josie') 64-bit
        _STATISTICS_WRITING_DATE_UTC: 2025-05-08 11:18:09
        _STATISTICS_TAGS: BPS DURATION NUMBER_OF_FRAMES NUMBER_OF_BYTES
Input #1, mov,mp4,m4a,3gp,3g2,mj2, from 'G:\Аниме\Онгоинги\!_35_Лето_2024\DreamCast\Моя подруга-олениха, Нокотан\[DC] Shikanoko Nokonoko Koshitantan - 08_Telegram.mp4':
  Metadata:
    major_brand     : isom
    minor_version   : 512
    compatible_brands: isomiso2avc1mp41
    encoder         : Lavf60.16.100
  Duration: 00:23:41.65, start: 0.000000, bitrate: 3757 kb/s
  Stream #1:0[0x1](und): Video: h264 (High) (avc1 / 0x31637661), yuv420p(tv, bt709, progressive), 1920x1080 [SAR 1:1 DAR 16:9], 3609 kb/s, 23.98 fps, 23.98 tbr, 24k tbn (default)
      Metadata:
        handler_name    : VideoHandler
        vendor_id       : [0][0][0][0]
        encoder         : Lavc60.31.102 h264_qsv
  Stream #1:1[0x2](und): Audio: aac (HE-AACv2) (mp4a / 0x6134706D), 48000 Hz, stereo, fltp, 144 kb/s (default)
      Metadata:
        handler_name    : SoundHandler
        vendor_id       : [0][0][0][0]
Stream mapping:
  Stream #0:0 (hevc) -> settb:default
  Stream #1:0 (h264) -> settb:default
  ssim:default -> Stream #0:0 (wrapped_avframe)
  Stream #0:1 -> #0:1 (aac (native) -> pcm_s16le (native))
Output #0, null, to 'pipe:':
  Metadata:
    COMPATIBLE_BRANDS: isomiso2avc1mp41
    MAJOR_BRAND     : isom
    MINOR_VERSION   : 512
    encoder         : Lavf61.7.100
  Stream #0:0: Video: wrapped_avframe, yuv420p10le(tv, bt709, progressive), 1920x1080 [SAR 1:1 DAR 16:9], q=2-31, 200 kb/s, 23.98 fps, 23.98 tbn
      Metadata:
        encoder         : Lavc61.19.100 wrapped_avframe
  Stream #0:1: Audio: pcm_s16le, 48000 Hz, stereo, s16, 1536 kb/s (default)
      Metadata:
        HANDLER_NAME    : SoundHandler
        VENDOR_ID       : [0][0][0][0]
        _STATISTICS_TAGS: BPS DURATION NUMBER_OF_FRAMES NUMBER_OF_BYTES
        BPS             : 193630
        DURATION        : 00:23:41.696000000
        NUMBER_OF_FRAMES: 66643
        NUMBER_OF_BYTES : 34410485
        _STATISTICS_WRITING_APP: mkvpropedit v66.0.0 ('Josie') 64-bit
        _STATISTICS_WRITING_DATE_UTC: 2025-05-08 11:18:09
        encoder         : Lavc61.19.100 pcm_s16le
frame=  168 fps=0.0 q=-0.0 size=N/A time=00:00:07.00 bitrate=N/A speed=13.4x    frame=  391 fps=380 q=-0.0 size=N/A time=00:00:16.30 bitrate=N/A speed=15.8x    frame=  642 fps=414 q=-0.0 size=N/A time=00:00:26.77 bitrate=N/A speed=17.3x    frame=  900 fps=437 q=-0.0 size=N/A time=00:00:37.53 bitrate=N/A speed=18.2x    frame= 1166 fps=451 q=-0.0 size=N/A time=00:00:48.63 bitrate=N/A speed=18.8x    frame= 1431 fps=461 q=-0.0 size=N/A time=00:00:59.68 bitrate=N/A speed=19.2x    frame= 1670 fps=462 q=-0.0 size=N/A time=00:01:09.65 bitrate=N/A speed=19.3x    frame= 1916 fps=463 q=-0.0 size=N/A time=00:01:19.91 bitrate=N/A speed=19.3x    frame= 2119 fps=456 q=-0.0 size=N/A time=00:01:28.37 bitrate=N/A speed=  19x    frame= 2288 fps=443 q=-0.0 size=N/A time=00:01:35.42 bitrate=N/A speed=18.5x    frame= 2488 fps=439 q=-0.0 size=N/A time=00:01:43.77 bitrate=N/A speed=18.3x    frame= 2694 fps=435 q=-0.0 size=N/A time=00:01:52.36 bitrate=N/A speed=18.1x    frame= 2901 fps=432 q=-0.0 size=N/A time=00:02:00.99 bitrate=N/A speed=  18x    frame= 3129 fps=433 q=-0.0 size=N/A time=00:02:10.50 bitrate=N/A speed=18.1x    frame= 3323 fps=429 q=-0.0 size=N/A time=00:02:18.59 bitrate=N/A speed=17.9x    frame= 3534 fps=428 q=-0.0 size=N/A time=00:02:27.39 bitrate=N/A speed=17.9x    frame= 3712 fps=423 q=-0.0 size=N/A time=00:02:34.82 bitrate=N/A speed=17.6x    frame= 3936 fps=424 q=-0.0 size=N/A time=00:02:44.16 bitrate=N/A speed=17.7x    frame= 4119 fps=420 q=-0.0 size=N/A time=00:02:51.79 bitrate=N/A speed=17.5x    frame= 4358 fps=422 q=-0.0 size=N/A time=00:03:01.76 bitrate=N/A speed=17.6x    frame= 4623 fps=427 q=-0.0 size=N/A time=00:03:12.81 bitrate=N/A speed=17.8x    frame= 4905 fps=432 q=-0.0 size=N/A time=00:03:24.57 bitrate=N/A speed=  18x    frame= 5166 fps=435 q=-0.0 size=N/A time=00:03:35.46 bitrate=N/A speed=18.2x    frame= 5407 fps=437 q=-0.0 size=N/A time=00:03:45.51 bitrate=N/A speed=18.2x    frame= 5627 fps=436 q=-0.0 size=N/A time=00:03:54.69 bitrate=N/A speed=18.2x    frame= 5870 fps=438 q=-0.0 size=N/A time=00:04:04.82 bitrate=N/A speed=18.3x    frame= 6116 fps=439 q=-0.0 size=N/A time=00:04:15.08 bitrate=N/A speed=18.3x    frame= 6368 fps=441 q=-0.0 size=N/A time=00:04:25.59 bitrate=N/A speed=18.4x    frame= 6621 fps=442 q=-0.0 size=N/A time=00:04:36.15 bitrate=N/A speed=18.5x    frame= 6892 fps=445 q=-0.0 size=N/A time=00:04:47.45 bitrate=N/A speed=18.6x    frame= 7163 fps=448 q=-0.0 size=N/A time=00:04:58.75 bitrate=N/A speed=18.7x    frame= 7419 fps=450 q=-0.0 size=N/A time=00:05:09.43 bitrate=N/A speed=18.8x    frame= 7616 fps=447 q=-0.0 size=N/A time=00:05:17.65 bitrate=N/A speed=18.7x    frame= 7793 fps=444 q=-0.0 size=N/A time=00:05:25.03 bitrate=N/A speed=18.5x    frame= 8046 fps=445 q=-0.0 size=N/A time=00:05:35.58 bitrate=N/A speed=18.6x    frame= 8276 fps=445 q=-0.0 size=N/A time=00:05:45.17 bitrate=N/A speed=18.6x    frame= 8524 fps=446 q=-0.0 size=N/A time=00:05:55.52 bitrate=N/A speed=18.6x    frame= 8775 fps=447 q=-0.0 size=N/A time=00:06:05.99 bitrate=N/A speed=18.7x    frame= 9028 fps=448 q=-0.0 size=N/A time=00:06:16.54 bitrate=N/A speed=18.7x    frame= 9264 fps=449 q=-0.0 size=N/A time=00:06:26.38 bitrate=N/A speed=18.7x    frame= 9509 fps=449 q=-0.0 size=N/A time=00:06:36.60 bitrate=N/A speed=18.7x    frame= 9761 fps=450 q=-0.0 size=N/A time=00:06:47.11 bitrate=N/A speed=18.8x    frame=10026 fps=452 q=-0.0 size=N/A time=00:06:58.16 bitrate=N/A speed=18.8x    frame=10281 fps=453 q=-0.0 size=N/A time=00:07:08.80 bitrate=N/A speed=18.9x    frame=10495 fps=452 q=-0.0 size=N/A time=00:07:17.72 bitrate=N/A speed=18.8x    frame=10716 fps=452 q=-0.0 size=N/A time=00:07:26.94 bitrate=N/A speed=18.8x    frame=10938 fps=451 q=-0.0 size=N/A time=00:07:36.20 bitrate=N/A speed=18.8x    frame=11170 fps=451 q=-0.0 size=N/A time=00:07:45.88 bitrate=N/A speed=18.8x    frame=11379 fps=450 q=-0.0 size=N/A time=00:07:54.59 bitrate=N/A speed=18.8x    frame=11601 fps=450 q=-0.0 size=N/A time=00:08:03.85 bitrate=N/A speed=18.8x    frame=11852 fps=450 q=-0.0 size=N/A time=00:08:14.32 bitrate=N/A speed=18.8x    frame=12070 fps=450 q=-0.0 size=N/A time=00:08:23.41 bitrate=N/A speed=18.8x    frame=12297 fps=450 q=-0.0 size=N/A time=00:08:32.88 bitrate=N/A speed=18.8x    frame=12506 fps=449 q=-0.0 size=N/A time=00:08:41.60 bitrate=N/A speed=18.7x    frame=12737 fps=449 q=-0.0 size=N/A time=00:08:51.23 bitrate=N/A speed=18.7x    frame=12976 fps=449 q=-0.0 size=N/A time=00:09:01.20 bitrate=N/A speed=18.7x    frame=13202 fps=449 q=-0.0 size=N/A time=00:09:10.63 bitrate=N/A speed=18.7x    frame=13464 fps=450 q=-0.0 size=N/A time=00:09:21.56 bitrate=N/A speed=18.8x    frame=13735 fps=451 q=-0.0 size=N/A time=00:09:32.86 bitrate=N/A speed=18.8x    frame=13996 fps=452 q=-0.0 size=N/A time=00:09:43.74 bitrate=N/A speed=18.9x    frame=14255 fps=453 q=-0.0 size=N/A time=00:09:54.55 bitrate=N/A speed=18.9x    frame=14467 fps=452 q=-0.0 size=N/A time=00:10:03.39 bitrate=N/A speed=18.9x    frame=14718 fps=453 q=-0.0 size=N/A time=00:10:13.86 bitrate=N/A speed=18.9x    frame=14979 fps=454 q=-0.0 size=N/A time=00:10:24.74 bitrate=N/A speed=18.9x    frame=15225 fps=454 q=-0.0 size=N/A time=00:10:35.00 bitrate=N/A speed=18.9x    frame=15433 fps=453 q=-0.0 size=N/A time=00:10:43.68 bitrate=N/A speed=18.9x    frame=15656 fps=453 q=-0.0 size=N/A time=00:10:52.98 bitrate=N/A speed=18.9x    frame=15901 fps=453 q=-0.0 size=N/A time=00:11:03.20 bitrate=N/A speed=18.9x    frame=16136 fps=453 q=-0.0 size=N/A time=00:11:13.00 bitrate=N/A speed=18.9x    frame=16324 fps=452 q=-0.0 size=N/A time=00:11:20.84 bitrate=N/A speed=18.9x    frame=16575 fps=452 q=-0.0 size=N/A time=00:11:31.31 bitrate=N/A speed=18.9x    frame=16818 fps=453 q=-0.0 size=N/A time=00:11:41.45 bitrate=N/A speed=18.9x    frame=17072 fps=453 q=-0.0 size=N/A time=00:11:52.04 bitrate=N/A speed=18.9x    frame=17267 fps=452 q=-0.0 size=N/A time=00:12:00.17 bitrate=N/A speed=18.9x    frame=17470 fps=451 q=-0.0 size=N/A time=00:12:08.64 bitrate=N/A speed=18.8x    frame=17701 fps=451 q=-0.0 size=N/A time=00:12:18.27 bitrate=N/A speed=18.8x    frame=17972 fps=452 q=-0.0 size=N/A time=00:12:29.58 bitrate=N/A speed=18.9x    frame=18236 fps=453 q=-0.0 size=N/A time=00:12:40.59 bitrate=N/A speed=18.9x    frame=18398 fps=451 q=-0.0 size=N/A time=00:12:47.34 bitrate=N/A speed=18.8x    frame=18635 fps=451 q=-0.0 size=N/A time=00:12:57.23 bitrate=N/A speed=18.8x    frame=18881 fps=452 q=-0.0 size=N/A time=00:13:07.49 bitrate=N/A speed=18.8x    frame=19131 fps=452 q=-0.0 size=N/A time=00:13:17.92 bitrate=N/A speed=18.9x    frame=19414 fps=453 q=-0.0 size=N/A time=00:13:29.72 bitrate=N/A speed=18.9x    frame=19672 fps=454 q=-0.0 size=N/A time=00:13:40.48 bitrate=N/A speed=18.9x    frame=19839 fps=452 q=-0.0 size=N/A time=00:13:47.45 bitrate=N/A speed=18.9x    frame=19993 fps=451 q=-0.0 size=N/A time=00:13:53.87 bitrate=N/A speed=18.8x    frame=20229 fps=451 q=-0.0 size=N/A time=00:14:03.71 bitrate=N/A speed=18.8x    frame=20453 fps=450 q=-0.0 size=N/A time=00:14:13.06 bitrate=N/A speed=18.8x    frame=20680 fps=450 q=-0.0 size=N/A time=00:14:22.52 bitrate=N/A speed=18.8x    frame=20895 fps=450 q=-0.0 size=N/A time=00:14:31.49 bitrate=N/A speed=18.8x    frame=21146 fps=450 q=-0.0 size=N/A time=00:14:41.96 bitrate=N/A speed=18.8x    frame=21413 fps=451 q=-0.0 size=N/A time=00:14:53.10 bitrate=N/A speed=18.8x    frame=21646 fps=451 q=-0.0 size=N/A time=00:15:02.81 bitrate=N/A speed=18.8x    frame=21875 fps=451 q=-0.0 size=N/A time=00:15:12.36 bitrate=N/A speed=18.8x    frame=22018 fps=449 q=-0.0 size=N/A time=00:15:18.33 bitrate=N/A speed=18.7x    frame=22236 fps=449 q=-0.0 size=N/A time=00:15:27.42 bitrate=N/A speed=18.7x    frame=22486 fps=449 q=-0.0 size=N/A time=00:15:37.85 bitrate=N/A speed=18.7x    frame=22748 fps=450 q=-0.0 size=N/A time=00:15:48.78 bitrate=N/A speed=18.8x    frame=22922 fps=449 q=-0.0 size=N/A time=00:15:56.03 bitrate=N/A speed=18.7x    frame=23111 fps=448 q=-0.0 size=N/A time=00:16:03.92 bitrate=N/A speed=18.7x    frame=23325 fps=448 q=-0.0 size=N/A time=00:16:12.84 bitrate=N/A speed=18.7x    frame=23576 fps=448 q=-0.0 size=N/A time=00:16:23.31 bitrate=N/A speed=18.7x    frame=23842 fps=449 q=-0.0 size=N/A time=00:16:34.41 bitrate=N/A speed=18.7x    frame=24089 fps=449 q=-0.0 size=N/A time=00:16:44.71 bitrate=N/A speed=18.7x    frame=24305 fps=449 q=-0.0 size=N/A time=00:16:53.72 bitrate=N/A speed=18.7x    frame=24508 fps=448 q=-0.0 size=N/A time=00:17:02.18 bitrate=N/A speed=18.7x    frame=24751 fps=448 q=-0.0 size=N/A time=00:17:12.32 bitrate=N/A speed=18.7x    frame=24962 fps=448 q=-0.0 size=N/A time=00:17:21.12 bitrate=N/A speed=18.7x    frame=25174 fps=448 q=-0.0 size=N/A time=00:17:29.96 bitrate=N/A speed=18.7x    frame=25412 fps=448 q=-0.0 size=N/A time=00:17:39.89 bitrate=N/A speed=18.7x    frame=25642 fps=448 q=-0.0 size=N/A time=00:17:49.48 bitrate=N/A speed=18.7x    frame=25882 fps=448 q=-0.0 size=N/A time=00:17:59.49 bitrate=N/A speed=18.7x    frame=26103 fps=448 q=-0.0 size=N/A time=00:18:08.71 bitrate=N/A speed=18.7x    frame=26360 fps=448 q=-0.0 size=N/A time=00:18:19.43 bitrate=N/A speed=18.7x    frame=26575 fps=448 q=-0.0 size=N/A time=00:18:28.39 bitrate=N/A speed=18.7x    frame=26777 fps=447 q=-0.0 size=N/A time=00:18:36.82 bitrate=N/A speed=18.6x    frame=26975 fps=447 q=-0.0 size=N/A time=00:18:45.08 bitrate=N/A speed=18.6x    frame=27239 fps=447 q=-0.0 size=N/A time=00:18:56.09 bitrate=N/A speed=18.7x    frame=27482 fps=447 q=-0.0 size=N/A time=00:19:06.22 bitrate=N/A speed=18.7x    frame=27707 fps=447 q=-0.0 size=N/A time=00:19:15.61 bitrate=N/A speed=18.7x    frame=27945 fps=447 q=-0.0 size=N/A time=00:19:25.53 bitrate=N/A speed=18.7x    frame=28199 fps=448 q=-0.0 size=N/A time=00:19:36.13 bitrate=N/A speed=18.7x    frame=28417 fps=448 q=-0.0 size=N/A time=00:19:45.22 bitrate=N/A speed=18.7x    frame=28638 fps=447 q=-0.0 size=N/A time=00:19:54.44 bitrate=N/A speed=18.7x    frame=28888 fps=448 q=-0.0 size=N/A time=00:20:04.87 bitrate=N/A speed=18.7x    frame=29121 fps=448 q=-0.0 size=N/A time=00:20:14.58 bitrate=N/A speed=18.7x    frame=29356 fps=448 q=-0.0 size=N/A time=00:20:24.38 bitrate=N/A speed=18.7x    frame=29598 fps=448 q=-0.0 size=N/A time=00:20:34.48 bitrate=N/A speed=18.7x    frame=29852 fps=448 q=-0.0 size=N/A time=00:20:45.07 bitrate=N/A speed=18.7x    frame=30123 fps=449 q=-0.0 size=N/A time=00:20:56.38 bitrate=N/A speed=18.7x    frame=30293 fps=448 q=-0.0 size=N/A time=00:21:03.47 bitrate=N/A speed=18.7x    frame=30526 fps=448 q=-0.0 size=N/A time=00:21:13.18 bitrate=N/A speed=18.7x    frame=30747 fps=448 q=-0.0 size=N/A time=00:21:22.40 bitrate=N/A speed=18.7x    frame=30972 fps=448 q=-0.0 size=N/A time=00:21:31.79 bitrate=N/A speed=18.7x    frame=31237 fps=448 q=-0.0 size=N/A time=00:21:42.84 bitrate=N/A speed=18.7x    frame=31498 fps=449 q=-0.0 size=N/A time=00:21:53.72 bitrate=N/A speed=18.7x    frame=31734 fps=449 q=-0.0 size=N/A time=00:22:03.57 bitrate=N/A speed=18.7x    frame=31961 fps=449 q=-0.0 size=N/A time=00:22:13.04 bitrate=N/A speed=18.7x    frame=32115 fps=448 q=-0.0 size=N/A time=00:22:19.46 bitrate=N/A speed=18.7x    frame=32294 fps=447 q=-0.0 size=N/A time=00:22:26.92 bitrate=N/A speed=18.6x    frame=32475 fps=446 q=-0.0 size=N/A time=00:22:34.47 bitrate=N/A speed=18.6x    frame=32640 fps=445 q=-0.0 size=N/A time=00:22:41.36 bitrate=N/A speed=18.6x    frame=32804 fps=445 q=-0.0 size=N/A time=00:22:48.20 bitrate=N/A speed=18.5x    frame=32966 fps=444 q=-0.0 size=N/A time=00:22:54.95 bitrate=N/A speed=18.5x    frame=33129 fps=443 q=-0.0 size=N/A time=00:23:01.75 bitrate=N/A speed=18.5x    frame=33298 fps=442 q=-0.0 size=N/A time=00:23:08.80 bitrate=N/A speed=18.4x    frame=33444 fps=441 q=-0.0 size=N/A time=00:23:14.89 bitrate=N/A speed=18.4x    frame=33608 fps=440 q=-0.0 size=N/A time=00:23:21.73 bitrate=N/A speed=18.4x    frame=33754 fps=439 q=-0.0 size=N/A time=00:23:27.82 bitrate=N/A speed=18.3x    frame=33911 fps=438 q=-0.0 size=N/A time=00:23:34.37 bitrate=N/A speed=18.3x    frame=34080 fps=437 q=-0.0 size=N/A time=00:23:41.42 bitrate=N/A speed=18.2x    [Parsed_ssim_10 @ 000001cb42d82b80] SSIM Y:0.994858 (22.888675) U:0.993144 (21.639239) V:0.992902 (21.488811) All:0.994246 (22.400575)
[out#0/null @ 000001cb359ceec0] video:14645KiB audio:266572KiB subtitle:0KiB other streams:0KiB global headers:0KiB muxing overhead: unknown
frame=34084 fps=437 q=-0.0 Lsize=N/A time=00:23:41.58 bitrate=N/A speed=18.2x    
